# xmcd
# Copyright (C) 1995-1998 Ti Kan
#
# Track frame offsets:
#       150
#       15470
#       31637
#       55080
#       69271
#       92018
#
# Disc length: 1489 seconds
#
# Revision: 0
# Processed by: cddbd v1.4b42PL1 Copyright (c) Steve Scherf et al.
# Submitted via: CD-Transfer v1.0
#
DISCID=3805cf06
DTITLE=Van - Moving
DYEAR=2000
DGENRE=
TTITLE0=A Piece Of The Sky
TTITLE1=A Different Thing
TTITLE2=Moving
TTITLE3=Recycling Rubbish Into Roses
TTITLE4=All In Their Mind
TTITLE5=The Ploughman
EXTD=
EXTT0=
EXTT1=
EXTT2=
EXTT3=
EXTT4=
EXTT5=
PLAYORDER=
